<?xml version="1.0" encoding="UTF-8" standalone="no"?>
<!-- Created with Inkscape (http://www.inkscape.org/) -->

<svg
   width="210mm"
   height="297mm"
   viewBox="0 0 210 297"
   version="1.1"
   id="svg1"
   inkscape:version="1.4 (86a8ad7, 2024-10-11)"
   sodipodi:docname="drawing.svg"
   xmlns:inkscape="http://www.inkscape.org/namespaces/inkscape"
   xmlns:sodipodi="http://sodipodi.sourceforge.net/DTD/sodipodi-0.dtd"
   xmlns:xlink="http://www.w3.org/1999/xlink"
   xmlns="http://www.w3.org/2000/svg"
   xmlns:svg="http://www.w3.org/2000/svg">
  <sodipodi:namedview
     id="namedview1"
     pagecolor="#ffffff"
     bordercolor="#000000"
     borderopacity="0.25"
     inkscape:showpageshadow="2"
     inkscape:pageopacity="0.0"
     inkscape:pagecheckerboard="0"
     inkscape:deskcolor="#d1d1d1"
     inkscape:document-units="mm"
     inkscape:zoom="4.4901281"
     inkscape:cx="313.91087"
     inkscape:cy="426.04576"
     inkscape:window-width="3840"
     inkscape:window-height="2054"
     inkscape:window-x="5149"
     inkscape:window-y="-11"
     inkscape:window-maximized="1"
     inkscape:current-layer="layer1" />
  <defs
     id="defs1">
    <pattern
       inkscape:collect="always"
       xlink:href="#shading6"
       preserveAspectRatio="xMidYMid"
       id="pattern29"
       patternTransform="scale(0.2)" />
    <pattern
       patternUnits="userSpaceOnUse"
       width="372.6899"
       height="66.1838"
       patternTransform="scale(0.2)"
       preserveAspectRatio="xMidYMid"
       id="shading6"
       style="fill:#000000"
       inkscape:label="Lines shading small"
       inkscape:collect="always"
       inkscape:isstock="true">
      <path
         id="path34"
         style="stroke-width:0.487199;stroke-linecap:square;paint-order:markers fill stroke;stop-color:#000000"
         d="m 371.6961,0 h 0.9938 v 66.1838 h -0.9938 z m -7.9084,0 h 1.1312 v 66.1838 h -1.1312 z m -7.9085,0 h 1.2687 v 66.1838 h -1.2687 z m -7.9084,0 h 1.4062 v 66.1838 h -1.4062 z m -7.9084,0 h 1.5436 v 66.1838 h -1.5436 z m -7.9084,0 h 1.681 v 66.1838 h -1.681 z m -7.9085,0 h 1.8185 v 66.1838 h -1.8185 z m -7.9084,0 h 1.9559 v 66.1838 h -1.9559 z m -7.9084,0 h 2.0934 v 66.1838 h -2.0934 z m -7.9085,0 h 2.2309 v 66.1838 h -2.2309 z m -7.9084,0 h 2.3683 v 66.1838 h -2.3683 z m -7.9084,0 h 2.5057 v 66.1838 h -2.5057 z m -7.9084,0 h 2.6431 v 66.1838 h -2.6431 z m -7.9085,0 h 2.7807 v 66.1838 h -2.7807 z m -7.9084,0 h 2.9181 v 66.1838 h -2.9181 z m -7.9084,0 h 3.0555 v 66.1838 h -3.0555 z m -7.9084,0 h 3.1929 v 66.1838 h -3.1929 z m -7.9085,0 h 3.3304 v 66.1838 h -3.3304 z m -7.9084,0 h 3.4679 v 66.1838 h -3.4679 z m -7.9084,0 h 3.6053 v 66.1838 h -3.6053 z m -7.9085,0 h 3.7428 v 66.1838 h -3.7428 z m -7.9084,0 h 3.8802 v 66.1838 h -3.8802 z m -7.9084,0 h 4.0176 v 66.1838 h -4.0176 z m -7.9084,0 h 4.1551 v 66.1838 h -4.1551 z m -7.9085,0 h 4.2926 v 66.1838 h -4.2926 z m -7.9084,0 h 4.43 v 66.1838 h -4.43 z m -7.9084,0 h 4.5674 v 66.1838 h -4.5674 z m -7.9084,0 h 4.7048 v 66.1838 h -4.7048 z m -7.9085,0 h 4.8424 v 66.1838 h -4.8424 z m -7.9084,0 h 4.9798 v 66.1838 h -4.9798 z m -7.9084,0 h 5.1172 v 66.1838 h -5.1172 z m -7.9084,0 h 5.2546 v 66.1838 h -5.2546 z m -7.9085,0 h 5.3921 v 66.1838 h -5.3921 z m -7.9084,0 h 5.5295 v 66.1838 h -5.5295 z m -7.9084,0 h 5.667 v 66.1838 h -5.667 z m -7.9085,0 h 5.8045 v 66.1838 h -5.8045 z m -7.9084,0 h 5.9419 v 66.1838 h -5.9419 z m -7.9084,0 h 6.0793 v 66.1838 h -6.0793 z m -7.9084,0 h 6.2167 v 66.1838 h -6.2167 z m -7.9085,0 h 6.3543 V 66.1838 H 63.2674 Z M 55.359,0 h 6.4917 V 66.1838 H 55.359 Z m -7.9084,0 h 6.6291 v 66.1838 h -6.6291 z m -7.9084,0 h 6.7665 v 66.1838 h -6.7665 z m -7.9085,0 h 6.904 v 66.1838 h -6.904 z m -7.9084,0 h 7.0415 v 66.1838 h -7.0415 z m -7.9084,0 h 7.1789 V 66.1838 H 15.8169 Z M 7.9084,0 h 7.3164 V 66.1838 H 7.9084 Z M 0,0 H 7.4538 V 66.1838 H 0 Z" />
    </pattern>
    <linearGradient
       id="linearGradient21">
      <stop
         style="stop-color:#00939e;stop-opacity:1;"
         offset="0"
         id="stop21" />
    </linearGradient>
    <linearGradient
       id="swatch14">
      <stop
         style="stop-color:#009300;stop-opacity:1;"
         offset="0"
         id="stop14" />
    </linearGradient>
    <linearGradient
       id="swatch13"
       inkscape:swatch="solid">
      <stop
         style="stop-color:#000000;stop-opacity:0;"
         offset="0"
         id="stop13" />
    </linearGradient>
    <linearGradient
       id="linearGradient6"
       inkscape:swatch="gradient">
      <stop
         style="stop-color:#000000;stop-opacity:1;"
         offset="0"
         id="stop6" />
      <stop
         style="stop-color:#000000;stop-opacity:0;"
         offset="1"
         id="stop7" />
    </linearGradient>
    <rect
       x="126.29921"
       y="375.43307"
       width="324.40945"
       height="236.85039"
       id="rect5" />
    <rect
       x="197.48032"
       y="509.92126"
       width="352.75591"
       height="125.66929"
       id="rect4" />
    <rect
       x="104.25197"
       y="445.98425"
       width="21.102367"
       height="48.818898"
       id="rect3" />
    <linearGradient
       inkscape:collect="always"
       xlink:href="#linearGradient6"
       id="linearGradient8"
       gradientUnits="userSpaceOnUse"
       x1="46.764059"
       y1="72.579044"
       x2="57.317136"
       y2="72.579044" />
    <linearGradient
       inkscape:collect="always"
       xlink:href="#swatch14"
       id="linearGradient16"
       gradientUnits="userSpaceOnUse"
       x1="69.255889"
       y1="71.052378"
       x2="78.961885"
       y2="71.052378"
       gradientTransform="translate(53.504413,34.94286)" />
  </defs>
  <g
     inkscape:label="Layer 1"
     inkscape:groupmode="layer"
     id="layer1">
    <text
       xml:space="preserve"
       transform="scale(0.26458333)"
       id="text3"
       style="fill:#000000;fill-opacity:0;text-orientation:auto;text-align:start;writing-mode:lr-tb;direction:ltr;white-space:pre;shape-inside:url(#rect3)" />
    <text
       xml:space="preserve"
       transform="scale(0.26458333)"
       id="text5"
       style="fill:#000000;fill-opacity:0;text-orientation:auto;text-align:start;writing-mode:lr-tb;direction:ltr;-inkscape-font-specification:'sans-serif Bold';font-family:sans-serif;font-weight:bold;font-style:normal;font-stretch:normal;font-variant:normal;font-size:17.33333333px;stroke:#000000;stroke-opacity:1;stroke-width:1.0015748;stroke-dasharray:none;white-space:pre;shape-inside:url(#rect5)" />
    <text
       xml:space="preserve"
       style="font-style:normal;font-variant:normal;font-weight:bold;font-stretch:normal;font-size:4.5861px;font-family:sans-serif;-inkscape-font-specification:'sans-serif Bold';text-align:start;writing-mode:lr-tb;direction:ltr;text-anchor:start;fill:url(#linearGradient8);fill-opacity:0;stroke:#000000;stroke-width:0.465;stroke-dasharray:none;stroke-opacity:1"
       x="46.904747"
       y="74.246208"
       id="text6"><tspan
         sodipodi:role="line"
         id="tspan6"
         style="stroke-width:0.465;stroke-dasharray:none;fill:url(#linearGradient8)"
         x="46.904747"
         y="74.246208">TEM</tspan></text>
    <text
       xml:space="preserve"
       style="font-style:normal;font-variant:normal;font-weight:bold;font-stretch:normal;font-size:4.5861px;font-family:sans-serif;-inkscape-font-specification:'sans-serif Bold';text-align:start;writing-mode:lr-tb;direction:ltr;text-anchor:start;fill:#000000;fill-opacity:0;stroke:#000000;stroke-width:0.465;stroke-dasharray:none;stroke-opacity:1"
       x="48.142189"
       y="95.754044"
       id="text8"><tspan
         sodipodi:role="line"
         id="tspan8"
         style="stroke-width:0.465"
         x="48.142189"
         y="95.754044">TEM</tspan></text>
    <text
       xml:space="preserve"
       style="font-style:normal;font-variant:normal;font-weight:bold;font-stretch:normal;font-size:4.5861px;font-family:sans-serif;-inkscape-font-specification:'sans-serif Bold';text-align:start;writing-mode:lr-tb;direction:ltr;text-anchor:start;fill:#000000;fill-opacity:0;stroke:#000000;stroke-width:0.465;stroke-dasharray:none;stroke-opacity:1"
       x="88.03479"
       y="104.47502"
       id="text9"><tspan
         sodipodi:role="line"
         id="tspan9"
         style="stroke-width:0.465"
         x="88.03479"
         y="104.47502">TEM</tspan></text>
    <text
       xml:space="preserve"
       style="font-style:normal;font-variant:normal;font-weight:normal;font-stretch:normal;font-size:4.5861px;font-family:'Lilita One';-inkscape-font-specification:'Lilita One';text-align:start;writing-mode:lr-tb;direction:ltr;text-anchor:start;fill:#000000;fill-opacity:0;stroke:#000000;stroke-width:0.465;stroke-dasharray:none;stroke-opacity:1"
       x="92.807762"
       y="79.844139"
       id="text10"><tspan
         sodipodi:role="line"
         id="tspan10"
         style="stroke-width:0.465"
         x="92.807762"
         y="79.844139">tem</tspan></text>
    <text
       xml:space="preserve"
       style="font-style:normal;font-variant:normal;font-weight:normal;font-stretch:normal;font-size:4.5861px;font-family:'Lilita One';-inkscape-font-specification:'Lilita One';text-align:start;writing-mode:lr-tb;direction:ltr;text-anchor:start;fill:#000000;fill-opacity:0;stroke:#000000;stroke-width:0.465;stroke-dasharray:none;stroke-opacity:1"
       x="111.19254"
       y="77.663895"
       id="text11"><tspan
         sodipodi:role="line"
         id="tspan11"
         style="stroke-width:0.465"
         x="111.19254"
         y="77.663895">TEM</tspan><tspan
         sodipodi:role="line"
         style="stroke-width:0.465"
         x="111.19254"
         y="83.396523"
         id="tspan12" /></text>
    <text
       xml:space="preserve"
       style="font-style:normal;font-variant:normal;font-weight:normal;font-stretch:normal;font-size:4.5861px;font-family:'Lilita One';-inkscape-font-specification:'Lilita One';text-align:start;writing-mode:lr-tb;direction:ltr;text-anchor:start;fill:url(#linearGradient16);fill-opacity:1;stroke:#000000;stroke-width:0;stroke-dasharray:none;stroke-dashoffset:0;stroke-opacity:1"
       x="122.8598"
       y="107.59808"
       id="text13"><tspan
         sodipodi:role="line"
         id="tspan13"
         style="fill:url(#linearGradient16);fill-opacity:1;fill-rule:nonzero;stroke:#3c1e1e;stroke-width:0;stroke-dasharray:none;stroke-dashoffset:0;stroke-opacity:1"
         x="122.8598"
         y="107.59808">SAM</tspan></text>
    <text
       xml:space="preserve"
       style="font-style:normal;font-variant:normal;font-weight:normal;font-stretch:normal;font-size:4.5861px;font-family:'Lilita One';-inkscape-font-specification:'Lilita One';text-align:start;writing-mode:lr-tb;direction:ltr;text-anchor:start;fill:url(#pattern29);fill-opacity:1;stroke:#000000;stroke-width:0;stroke-dasharray:none;stroke-dashoffset:0;stroke-opacity:1"
       x="134.8045"
       y="115.1703"
       id="text13-8"><tspan
         sodipodi:role="line"
         id="tspan13-2"
         style="fill:#0000ff;fill-opacity:1;fill-rule:nonzero;stroke:#3c1e1e;stroke-width:0;stroke-dasharray:none;stroke-dashoffset:0;stroke-opacity:1"
         x="134.8045"
         y="115.1703">TEM</tspan></text>
  </g>
</svg>
